<?xml version="1.0" encoding="UTF-8" standalone="no"?>
<!DOCTYPE svg PUBLIC "-//W3C//DTD SVG 1.1//EN"
 "http://www.w3.org/Graphics/SVG/1.1/DTD/svg11.dtd">
<!-- Generated by graphviz version 6.0.1 (0)
 -->
<!-- Pages: 1 -->
<svg width="420pt" height="438pt"
 viewBox="0.00 0.00 419.72 437.88" xmlns="http://www.w3.org/2000/svg" xmlns:xlink="http://www.w3.org/1999/xlink">
<g id="graph0" class="graph" transform="scale(1 1) rotate(0) translate(4 433.88)">
<polygon fill="white" stroke="none" points="-4,4 -4,-433.88 415.72,-433.88 415.72,4 -4,4"/>
<g id="clust1" class="cluster">
<title>cluster10</title>
<path fill="none" stroke="black" d="M20,-8C20,-8 130,-8 130,-8 136,-8 142,-14 142,-20 142,-20 142,-409.88 142,-409.88 142,-415.88 136,-421.88 130,-421.88 130,-421.88 20,-421.88 20,-421.88 14,-421.88 8,-415.88 8,-409.88 8,-409.88 8,-20 8,-20 8,-14 14,-8 20,-8"/>
<text text-anchor="middle" x="127" y="-15.8" font-family="Times New Roman,serif" font-size="14.00">10</text>
</g>
<!-- Ct_modeled -->
<g id="node1" class="node">
<title>Ct_modeled</title>
<ellipse fill="lightgrey" stroke="black" cx="75" cy="-165.48" rx="58.88" ry="37.45"/>
<text text-anchor="middle" x="75" y="-176.78" font-family="Times New Roman,serif" font-size="14.00">Ct_modeled</text>
<text text-anchor="middle" x="75" y="-161.78" font-family="Times New Roman,serif" font-size="14.00">~</text>
<text text-anchor="middle" x="75" y="-146.78" font-family="Times New Roman,serif" font-size="14.00">Normal</text>
</g>
<!-- Ct_obs -->
<g id="node3" class="node">
<title>Ct_obs</title>
<path fill="lightgrey" stroke="black" d="M107,-92C107,-92 43,-92 43,-92 37,-92 31,-86 31,-80 31,-80 31,-51 31,-51 31,-45 37,-39 43,-39 43,-39 107,-39 107,-39 113,-39 119,-45 119,-51 119,-51 119,-80 119,-80 119,-86 113,-92 107,-92"/>
<text text-anchor="middle" x="75" y="-76.8" font-family="Times New Roman,serif" font-size="14.00">Ct_obs</text>
<text text-anchor="middle" x="75" y="-61.8" font-family="Times New Roman,serif" font-size="14.00">~</text>
<text text-anchor="middle" x="75" y="-46.8" font-family="Times New Roman,serif" font-size="14.00">MutableData</text>
</g>
<!-- Ct_modeled&#45;&gt;Ct_obs -->
<g id="edge1" class="edge">
<title>Ct_modeled&#45;&gt;Ct_obs</title>
<path fill="none" stroke="black" d="M75,-127.99C75,-119.58 75,-110.63 75,-102.25"/>
<polygon fill="black" stroke="black" points="78.5,-102.01 75,-92.01 71.5,-102.01 78.5,-102.01"/>
</g>
<!-- Ct -->
<g id="node2" class="node">
<title>Ct</title>
<polygon fill="none" stroke="black" points="132.5,-302.93 41.5,-302.93 41.5,-249.93 132.5,-249.93 132.5,-302.93"/>
<text text-anchor="middle" x="87" y="-287.73" font-family="Times New Roman,serif" font-size="14.00">Ct</text>
<text text-anchor="middle" x="87" y="-272.73" font-family="Times New Roman,serif" font-size="14.00">~</text>
<text text-anchor="middle" x="87" y="-257.73" font-family="Times New Roman,serif" font-size="14.00">Deterministic</text>
</g>
<!-- Ct&#45;&gt;Ct_modeled -->
<g id="edge5" class="edge">
<title>Ct&#45;&gt;Ct_modeled</title>
<path fill="none" stroke="black" d="M84.19,-249.89C82.97,-238.87 81.51,-225.63 80.12,-212.97"/>
<polygon fill="black" stroke="black" points="83.6,-212.56 79.02,-203 76.64,-213.32 83.6,-212.56"/>
</g>
<!-- t_obs -->
<g id="node4" class="node">
<title>t_obs</title>
<path fill="lightgrey" stroke="black" d="M119,-413.88C119,-413.88 55,-413.88 55,-413.88 49,-413.88 43,-407.88 43,-401.88 43,-401.88 43,-372.88 43,-372.88 43,-366.88 49,-360.88 55,-360.88 55,-360.88 119,-360.88 119,-360.88 125,-360.88 131,-366.88 131,-372.88 131,-372.88 131,-401.88 131,-401.88 131,-407.88 125,-413.88 119,-413.88"/>
<text text-anchor="middle" x="87" y="-398.68" font-family="Times New Roman,serif" font-size="14.00">t_obs</text>
<text text-anchor="middle" x="87" y="-383.68" font-family="Times New Roman,serif" font-size="14.00">~</text>
<text text-anchor="middle" x="87" y="-368.68" font-family="Times New Roman,serif" font-size="14.00">MutableData</text>
</g>
<!-- t_obs&#45;&gt;Ct -->
<g id="edge4" class="edge">
<title>t_obs&#45;&gt;Ct</title>
<path fill="none" stroke="black" d="M87,-360.84C87,-346.73 87,-328.98 87,-313.49"/>
<polygon fill="black" stroke="black" points="90.5,-313.19 87,-303.19 83.5,-313.19 90.5,-313.19"/>
</g>
<!-- C0 -->
<g id="node5" class="node">
<title>C0</title>
<ellipse fill="none" stroke="black" cx="230" cy="-387.38" rx="79.81" ry="37.45"/>
<text text-anchor="middle" x="230" y="-398.68" font-family="Times New Roman,serif" font-size="14.00">C0</text>
<text text-anchor="middle" x="230" y="-383.68" font-family="Times New Roman,serif" font-size="14.00">~</text>
<text text-anchor="middle" x="230" y="-368.68" font-family="Times New Roman,serif" font-size="14.00">TruncatedNormal</text>
</g>
<!-- C0&#45;&gt;Ct -->
<g id="edge2" class="edge">
<title>C0&#45;&gt;Ct</title>
<path fill="none" stroke="black" d="M189.02,-355.16C170.19,-340.81 147.87,-323.81 128.92,-309.37"/>
<polygon fill="black" stroke="black" points="130.83,-306.42 120.75,-303.15 126.58,-311.99 130.83,-306.42"/>
</g>
<!-- slope -->
<g id="node6" class="node">
<title>slope</title>
<ellipse fill="none" stroke="black" cx="370" cy="-387.38" rx="41.94" ry="37.45"/>
<text text-anchor="middle" x="370" y="-398.68" font-family="Times New Roman,serif" font-size="14.00">slope</text>
<text text-anchor="middle" x="370" y="-383.68" font-family="Times New Roman,serif" font-size="14.00">~</text>
<text text-anchor="middle" x="370" y="-368.68" font-family="Times New Roman,serif" font-size="14.00">Normal</text>
</g>
<!-- slope&#45;&gt;Ct -->
<g id="edge3" class="edge">
<title>slope&#45;&gt;Ct</title>
<path fill="none" stroke="black" d="M339.7,-361.6C333.17,-357.17 326.09,-352.99 319,-349.91 244.98,-317.72 215.44,-345.1 141,-313.91 137.13,-312.28 133.24,-310.36 129.43,-308.27"/>
<polygon fill="black" stroke="black" points="131.09,-305.19 120.7,-303.11 127.53,-311.21 131.09,-305.19"/>
</g>
<!-- sigma -->
<g id="node7" class="node">
<title>sigma</title>
<ellipse fill="none" stroke="black" cx="209" cy="-276.43" rx="58.88" ry="37.45"/>
<text text-anchor="middle" x="209" y="-287.73" font-family="Times New Roman,serif" font-size="14.00">sigma</text>
<text text-anchor="middle" x="209" y="-272.73" font-family="Times New Roman,serif" font-size="14.00">~</text>
<text text-anchor="middle" x="209" y="-257.73" font-family="Times New Roman,serif" font-size="14.00">HalfNormal</text>
</g>
<!-- sigma&#45;&gt;Ct_modeled -->
<g id="edge6" class="edge">
<title>sigma&#45;&gt;Ct_modeled</title>
<path fill="none" stroke="black" d="M173.44,-246.52C156.63,-232.85 136.41,-216.41 118.68,-201.99"/>
<polygon fill="black" stroke="black" points="120.69,-199.12 110.72,-195.52 116.27,-204.55 120.69,-199.12"/>
</g>
</g>
</svg>
