<?xml version="1.0" encoding="UTF-8" standalone="no"?>
<!DOCTYPE svg PUBLIC "-//W3C//DTD SVG 1.1//EN"
 "http://www.w3.org/Graphics/SVG/1.1/DTD/svg11.dtd">
<!-- Generated by graphviz version 6.0.1 (0)
 -->
<!-- Pages: 1 -->
<svg width="578pt" height="436pt"
 viewBox="0.00 0.00 577.90 435.86" xmlns="http://www.w3.org/2000/svg" xmlns:xlink="http://www.w3.org/1999/xlink">
<g id="graph0" class="graph" transform="scale(1 1) rotate(0) translate(4 431.86)">
<polygon fill="white" stroke="none" points="-4,4 -4,-431.86 573.9,-431.86 573.9,4 -4,4"/>
<g id="clust1" class="cluster">
<title>cluster176</title>
<path fill="none" stroke="black" d="M20,-8C20,-8 126,-8 126,-8 132,-8 138,-14 138,-20 138,-20 138,-301.93 138,-301.93 138,-307.93 132,-313.93 126,-313.93 126,-313.93 20,-313.93 20,-313.93 14,-313.93 8,-307.93 8,-301.93 8,-301.93 8,-20 8,-20 8,-14 14,-8 20,-8"/>
<text text-anchor="middle" x="119.5" y="-15.8" font-family="Times New Roman,serif" font-size="14.00">176</text>
</g>
<g id="clust2" class="cluster">
<title>cluster12</title>
<path fill="none" stroke="black" d="M328,-210.95C328,-210.95 480,-210.95 480,-210.95 486,-210.95 492,-216.95 492,-222.95 492,-222.95 492,-312.91 492,-312.91 492,-318.91 486,-324.91 480,-324.91 480,-324.91 328,-324.91 328,-324.91 322,-324.91 316,-318.91 316,-312.91 316,-312.91 316,-222.95 316,-222.95 316,-216.95 322,-210.95 328,-210.95"/>
<text text-anchor="middle" x="477" y="-218.75" font-family="Times New Roman,serif" font-size="14.00">12</text>
</g>
<!-- area_idx -->
<g id="node1" class="node">
<title>area_idx</title>
<path fill="lightgrey" stroke="black" d="M105,-305.93C105,-305.93 41,-305.93 41,-305.93 35,-305.93 29,-299.93 29,-293.93 29,-293.93 29,-264.93 29,-264.93 29,-258.93 35,-252.93 41,-252.93 41,-252.93 105,-252.93 105,-252.93 111,-252.93 117,-258.93 117,-264.93 117,-264.93 117,-293.93 117,-293.93 117,-299.93 111,-305.93 105,-305.93"/>
<text text-anchor="middle" x="73" y="-290.73" font-family="Times New Roman,serif" font-size="14.00">area_idx</text>
<text text-anchor="middle" x="73" y="-275.73" font-family="Times New Roman,serif" font-size="14.00">~</text>
<text text-anchor="middle" x="73" y="-260.73" font-family="Times New Roman,serif" font-size="14.00">MutableData</text>
</g>
<!-- C_modeled -->
<g id="node3" class="node">
<title>C_modeled</title>
<ellipse fill="lightgrey" stroke="black" cx="73" cy="-165.48" rx="56.64" ry="37.45"/>
<text text-anchor="middle" x="73" y="-176.78" font-family="Times New Roman,serif" font-size="14.00">C_modeled</text>
<text text-anchor="middle" x="73" y="-161.78" font-family="Times New Roman,serif" font-size="14.00">~</text>
<text text-anchor="middle" x="73" y="-146.78" font-family="Times New Roman,serif" font-size="14.00">Gamma</text>
</g>
<!-- area_idx&#45;&gt;C_modeled -->
<g id="edge4" class="edge">
<title>area_idx&#45;&gt;C_modeled</title>
<path fill="none" stroke="black" d="M73,-252.75C73,-241.02 73,-226.75 73,-213.22"/>
<polygon fill="black" stroke="black" points="76.5,-213.07 73,-203.07 69.5,-213.07 76.5,-213.07"/>
</g>
<!-- C_obs -->
<g id="node2" class="node">
<title>C_obs</title>
<path fill="lightgrey" stroke="black" d="M105,-92C105,-92 41,-92 41,-92 35,-92 29,-86 29,-80 29,-80 29,-51 29,-51 29,-45 35,-39 41,-39 41,-39 105,-39 105,-39 111,-39 117,-45 117,-51 117,-51 117,-80 117,-80 117,-86 111,-92 105,-92"/>
<text text-anchor="middle" x="73" y="-76.8" font-family="Times New Roman,serif" font-size="14.00">C_obs</text>
<text text-anchor="middle" x="73" y="-61.8" font-family="Times New Roman,serif" font-size="14.00">~</text>
<text text-anchor="middle" x="73" y="-46.8" font-family="Times New Roman,serif" font-size="14.00">MutableData</text>
</g>
<!-- C_modeled&#45;&gt;C_obs -->
<g id="edge1" class="edge">
<title>C_modeled&#45;&gt;C_obs</title>
<path fill="none" stroke="black" d="M73,-127.99C73,-119.58 73,-110.63 73,-102.25"/>
<polygon fill="black" stroke="black" points="76.5,-102.01 73,-92.01 69.5,-102.01 76.5,-102.01"/>
</g>
<!-- cv -->
<g id="node4" class="node">
<title>cv</title>
<ellipse fill="none" stroke="black" cx="226" cy="-279.43" rx="79.81" ry="37.45"/>
<text text-anchor="middle" x="226" y="-290.73" font-family="Times New Roman,serif" font-size="14.00">cv</text>
<text text-anchor="middle" x="226" y="-275.73" font-family="Times New Roman,serif" font-size="14.00">~</text>
<text text-anchor="middle" x="226" y="-260.73" font-family="Times New Roman,serif" font-size="14.00">TruncatedNormal</text>
</g>
<!-- cv&#45;&gt;C_modeled -->
<g id="edge5" class="edge">
<title>cv&#45;&gt;C_modeled</title>
<path fill="none" stroke="black" d="M187.76,-246.33C173.63,-234.84 157.33,-222 142,-210.95 135.66,-206.38 128.87,-201.73 122.11,-197.24"/>
<polygon fill="black" stroke="black" points="123.89,-194.22 113.61,-191.65 120.05,-200.07 123.89,-194.22"/>
</g>
<!-- area_mu_sigma -->
<g id="node5" class="node">
<title>area_mu_sigma</title>
<ellipse fill="none" stroke="black" cx="319" cy="-390.38" rx="73.58" ry="37.45"/>
<text text-anchor="middle" x="319" y="-401.68" font-family="Times New Roman,serif" font-size="14.00">area_mu_sigma</text>
<text text-anchor="middle" x="319" y="-386.68" font-family="Times New Roman,serif" font-size="14.00">~</text>
<text text-anchor="middle" x="319" y="-371.68" font-family="Times New Roman,serif" font-size="14.00">Exponential</text>
</g>
<!-- area_mu -->
<g id="node7" class="node">
<title>area_mu</title>
<ellipse fill="none" stroke="black" cx="404" cy="-279.43" rx="79.81" ry="37.45"/>
<text text-anchor="middle" x="404" y="-290.73" font-family="Times New Roman,serif" font-size="14.00">area_mu</text>
<text text-anchor="middle" x="404" y="-275.73" font-family="Times New Roman,serif" font-size="14.00">~</text>
<text text-anchor="middle" x="404" y="-260.73" font-family="Times New Roman,serif" font-size="14.00">TruncatedNormal</text>
</g>
<!-- area_mu_sigma&#45;&gt;area_mu -->
<g id="edge2" class="edge">
<title>area_mu_sigma&#45;&gt;area_mu</title>
<path fill="none" stroke="black" d="M345.66,-355.21C353.65,-344.96 362.52,-333.6 370.87,-322.89"/>
<polygon fill="black" stroke="black" points="373.75,-324.9 377.14,-314.86 368.23,-320.59 373.75,-324.9"/>
</g>
<!-- area_mu_mu -->
<g id="node6" class="node">
<title>area_mu_mu</title>
<ellipse fill="none" stroke="black" cx="490" cy="-390.38" rx="79.81" ry="37.45"/>
<text text-anchor="middle" x="490" y="-401.68" font-family="Times New Roman,serif" font-size="14.00">area_mu_mu</text>
<text text-anchor="middle" x="490" y="-386.68" font-family="Times New Roman,serif" font-size="14.00">~</text>
<text text-anchor="middle" x="490" y="-371.68" font-family="Times New Roman,serif" font-size="14.00">TruncatedNormal</text>
</g>
<!-- area_mu_mu&#45;&gt;area_mu -->
<g id="edge3" class="edge">
<title>area_mu_mu&#45;&gt;area_mu</title>
<path fill="none" stroke="black" d="M462.79,-354.91C454.79,-344.78 445.94,-333.57 437.59,-322.99"/>
<polygon fill="black" stroke="black" points="440.27,-320.73 431.33,-315.05 434.78,-325.07 440.27,-320.73"/>
</g>
<!-- area_mu&#45;&gt;C_modeled -->
<g id="edge6" class="edge">
<title>area_mu&#45;&gt;C_modeled</title>
<path fill="none" stroke="black" d="M368.79,-245.67C353.34,-232.98 334.34,-219.48 315,-210.95 258.87,-186.21 189.56,-175.23 139.52,-170.36"/>
<polygon fill="black" stroke="black" points="139.74,-166.86 129.46,-169.44 139.1,-173.83 139.74,-166.86"/>
</g>
</g>
</svg>
