<?xml version="1.0" encoding="UTF-8" standalone="no"?>
<!DOCTYPE svg PUBLIC "-//W3C//DTD SVG 1.1//EN"
 "http://www.w3.org/Graphics/SVG/1.1/DTD/svg11.dtd">
<!-- Generated by graphviz version 6.0.1 (0)
 -->
<!-- Pages: 1 -->
<svg width="852pt" height="438pt"
 viewBox="0.00 0.00 851.90 437.88" xmlns="http://www.w3.org/2000/svg" xmlns:xlink="http://www.w3.org/1999/xlink">
<g id="graph0" class="graph" transform="scale(1 1) rotate(0) translate(4 433.88)">
<polygon fill="white" stroke="none" points="-4,4 -4,-433.88 847.9,-433.88 847.9,4 -4,4"/>
<g id="clust1" class="cluster">
<title>cluster10</title>
<path fill="none" stroke="black" d="M20,-8C20,-8 130,-8 130,-8 136,-8 142,-14 142,-20 142,-20 142,-409.88 142,-409.88 142,-415.88 136,-421.88 130,-421.88 130,-421.88 20,-421.88 20,-421.88 14,-421.88 8,-415.88 8,-409.88 8,-409.88 8,-20 8,-20 8,-14 14,-8 20,-8"/>
<text text-anchor="middle" x="127" y="-15.8" font-family="Times New Roman,serif" font-size="14.00">10</text>
</g>
<!-- Ct_obs -->
<g id="node1" class="node">
<title>Ct_obs</title>
<path fill="lightgrey" stroke="black" d="M107,-92C107,-92 43,-92 43,-92 37,-92 31,-86 31,-80 31,-80 31,-51 31,-51 31,-45 37,-39 43,-39 43,-39 107,-39 107,-39 113,-39 119,-45 119,-51 119,-51 119,-80 119,-80 119,-86 113,-92 107,-92"/>
<text text-anchor="middle" x="75" y="-76.8" font-family="Times New Roman,serif" font-size="14.00">Ct_obs</text>
<text text-anchor="middle" x="75" y="-61.8" font-family="Times New Roman,serif" font-size="14.00">~</text>
<text text-anchor="middle" x="75" y="-46.8" font-family="Times New Roman,serif" font-size="14.00">MutableData</text>
</g>
<!-- Ct -->
<g id="node2" class="node">
<title>Ct</title>
<polygon fill="none" stroke="black" points="133.5,-302.93 42.5,-302.93 42.5,-249.93 133.5,-249.93 133.5,-302.93"/>
<text text-anchor="middle" x="88" y="-287.73" font-family="Times New Roman,serif" font-size="14.00">Ct</text>
<text text-anchor="middle" x="88" y="-272.73" font-family="Times New Roman,serif" font-size="14.00">~</text>
<text text-anchor="middle" x="88" y="-257.73" font-family="Times New Roman,serif" font-size="14.00">Deterministic</text>
</g>
<!-- Ct_modeled -->
<g id="node4" class="node">
<title>Ct_modeled</title>
<ellipse fill="lightgrey" stroke="black" cx="75" cy="-165.48" rx="58.88" ry="37.45"/>
<text text-anchor="middle" x="75" y="-176.78" font-family="Times New Roman,serif" font-size="14.00">Ct_modeled</text>
<text text-anchor="middle" x="75" y="-161.78" font-family="Times New Roman,serif" font-size="14.00">~</text>
<text text-anchor="middle" x="75" y="-146.78" font-family="Times New Roman,serif" font-size="14.00">Normal</text>
</g>
<!-- Ct&#45;&gt;Ct_modeled -->
<g id="edge7" class="edge">
<title>Ct&#45;&gt;Ct_modeled</title>
<path fill="none" stroke="black" d="M84.95,-249.89C83.64,-238.87 82.06,-225.63 80.55,-212.97"/>
<polygon fill="black" stroke="black" points="84.02,-212.52 79.36,-203 77.07,-213.35 84.02,-212.52"/>
</g>
<!-- t_obs -->
<g id="node3" class="node">
<title>t_obs</title>
<path fill="lightgrey" stroke="black" d="M120,-413.88C120,-413.88 56,-413.88 56,-413.88 50,-413.88 44,-407.88 44,-401.88 44,-401.88 44,-372.88 44,-372.88 44,-366.88 50,-360.88 56,-360.88 56,-360.88 120,-360.88 120,-360.88 126,-360.88 132,-366.88 132,-372.88 132,-372.88 132,-401.88 132,-401.88 132,-407.88 126,-413.88 120,-413.88"/>
<text text-anchor="middle" x="88" y="-398.68" font-family="Times New Roman,serif" font-size="14.00">t_obs</text>
<text text-anchor="middle" x="88" y="-383.68" font-family="Times New Roman,serif" font-size="14.00">~</text>
<text text-anchor="middle" x="88" y="-368.68" font-family="Times New Roman,serif" font-size="14.00">MutableData</text>
</g>
<!-- t_obs&#45;&gt;Ct -->
<g id="edge5" class="edge">
<title>t_obs&#45;&gt;Ct</title>
<path fill="none" stroke="black" d="M88,-360.84C88,-346.73 88,-328.98 88,-313.49"/>
<polygon fill="black" stroke="black" points="91.5,-313.19 88,-303.19 84.5,-313.19 91.5,-313.19"/>
</g>
<!-- Ct_modeled&#45;&gt;Ct_obs -->
<g id="edge1" class="edge">
<title>Ct_modeled&#45;&gt;Ct_obs</title>
<path fill="none" stroke="black" d="M75,-127.99C75,-119.58 75,-110.63 75,-102.25"/>
<polygon fill="black" stroke="black" points="78.5,-102.01 75,-92.01 71.5,-102.01 78.5,-102.01"/>
</g>
<!-- sigma -->
<g id="node5" class="node">
<title>sigma</title>
<ellipse fill="none" stroke="black" cx="210" cy="-276.43" rx="58.88" ry="37.45"/>
<text text-anchor="middle" x="210" y="-287.73" font-family="Times New Roman,serif" font-size="14.00">sigma</text>
<text text-anchor="middle" x="210" y="-272.73" font-family="Times New Roman,serif" font-size="14.00">~</text>
<text text-anchor="middle" x="210" y="-257.73" font-family="Times New Roman,serif" font-size="14.00">HalfNormal</text>
</g>
<!-- sigma&#45;&gt;Ct_modeled -->
<g id="edge8" class="edge">
<title>sigma&#45;&gt;Ct_modeled</title>
<path fill="none" stroke="black" d="M174.18,-246.52C157.24,-232.85 136.87,-216.41 119,-201.99"/>
<polygon fill="black" stroke="black" points="120.97,-199.08 110.99,-195.52 116.57,-204.53 120.97,-199.08"/>
</g>
<!-- R -->
<g id="node6" class="node">
<title>R</title>
<ellipse fill="none" stroke="black" cx="230" cy="-387.38" rx="79.81" ry="37.45"/>
<text text-anchor="middle" x="230" y="-398.68" font-family="Times New Roman,serif" font-size="14.00">R</text>
<text text-anchor="middle" x="230" y="-383.68" font-family="Times New Roman,serif" font-size="14.00">~</text>
<text text-anchor="middle" x="230" y="-368.68" font-family="Times New Roman,serif" font-size="14.00">TruncatedNormal</text>
</g>
<!-- R&#45;&gt;Ct -->
<g id="edge4" class="edge">
<title>R&#45;&gt;Ct</title>
<path fill="none" stroke="black" d="M188.93,-354.87C170.23,-340.53 148.15,-323.58 129.42,-309.21"/>
<polygon fill="black" stroke="black" points="131.4,-306.32 121.34,-303.01 127.14,-311.88 131.4,-306.32"/>
</g>
<!-- B -->
<g id="node7" class="node">
<title>B</title>
<ellipse fill="none" stroke="black" cx="408" cy="-387.38" rx="79.81" ry="37.45"/>
<text text-anchor="middle" x="408" y="-398.68" font-family="Times New Roman,serif" font-size="14.00">B</text>
<text text-anchor="middle" x="408" y="-383.68" font-family="Times New Roman,serif" font-size="14.00">~</text>
<text text-anchor="middle" x="408" y="-368.68" font-family="Times New Roman,serif" font-size="14.00">TruncatedNormal</text>
</g>
<!-- B&#45;&gt;Ct -->
<g id="edge6" class="edge">
<title>B&#45;&gt;Ct</title>
<path fill="none" stroke="black" d="M350.64,-361.03C340.24,-356.96 329.39,-353.06 319,-349.91 242.19,-326.58 216.02,-344.97 142,-313.91 138.13,-312.28 134.24,-310.36 130.43,-308.26"/>
<polygon fill="black" stroke="black" points="132.1,-305.18 121.71,-303.11 128.53,-311.21 132.1,-305.18"/>
</g>
<!-- Cd -->
<g id="node8" class="node">
<title>Cd</title>
<ellipse fill="none" stroke="black" cx="586" cy="-387.38" rx="79.81" ry="37.45"/>
<text text-anchor="middle" x="586" y="-398.68" font-family="Times New Roman,serif" font-size="14.00">Cd</text>
<text text-anchor="middle" x="586" y="-383.68" font-family="Times New Roman,serif" font-size="14.00">~</text>
<text text-anchor="middle" x="586" y="-368.68" font-family="Times New Roman,serif" font-size="14.00">TruncatedNormal</text>
</g>
<!-- Cd&#45;&gt;Ct -->
<g id="edge2" class="edge">
<title>Cd&#45;&gt;Ct</title>
<path fill="none" stroke="black" d="M529.85,-360.53C519.12,-356.41 507.85,-352.62 497,-349.91 343.15,-311.44 291.1,-367.92 142,-313.91 137.7,-312.35 133.4,-310.37 129.22,-308.14"/>
<polygon fill="black" stroke="black" points="130.71,-304.96 120.3,-302.94 127.18,-311 130.71,-304.96"/>
</g>
<!-- C0 -->
<g id="node9" class="node">
<title>C0</title>
<ellipse fill="none" stroke="black" cx="764" cy="-387.38" rx="79.81" ry="37.45"/>
<text text-anchor="middle" x="764" y="-398.68" font-family="Times New Roman,serif" font-size="14.00">C0</text>
<text text-anchor="middle" x="764" y="-383.68" font-family="Times New Roman,serif" font-size="14.00">~</text>
<text text-anchor="middle" x="764" y="-368.68" font-family="Times New Roman,serif" font-size="14.00">TruncatedNormal</text>
</g>
<!-- C0&#45;&gt;Ct -->
<g id="edge3" class="edge">
<title>C0&#45;&gt;Ct</title>
<path fill="none" stroke="black" d="M708.4,-360.42C697.53,-356.25 686.06,-352.48 675,-349.91 443.73,-296.19 366.56,-391.02 142,-313.91 137.49,-312.36 133,-310.33 128.65,-308.02"/>
<polygon fill="black" stroke="black" points="130.34,-304.96 119.94,-302.96 126.82,-311.01 130.34,-304.96"/>
</g>
</g>
</svg>
