<?xml version="1.0" encoding="UTF-8" standalone="no"?>
<!DOCTYPE svg PUBLIC "-//W3C//DTD SVG 1.1//EN"
 "http://www.w3.org/Graphics/SVG/1.1/DTD/svg11.dtd">
<!-- Generated by graphviz version 6.0.1 (0)
 -->
<!-- Pages: 1 -->
<svg width="970pt" height="438pt"
 viewBox="0.00 0.00 969.59 437.88" xmlns="http://www.w3.org/2000/svg" xmlns:xlink="http://www.w3.org/1999/xlink">
<g id="graph0" class="graph" transform="scale(1 1) rotate(0) translate(4 433.88)">
<polygon fill="white" stroke="none" points="-4,4 -4,-433.88 965.59,-433.88 965.59,4 -4,4"/>
<g id="clust1" class="cluster">
<title>cluster10</title>
<path fill="none" stroke="black" d="M137.69,-8C137.69,-8 247.69,-8 247.69,-8 253.69,-8 259.69,-14 259.69,-20 259.69,-20 259.69,-409.88 259.69,-409.88 259.69,-415.88 253.69,-421.88 247.69,-421.88 247.69,-421.88 137.69,-421.88 137.69,-421.88 131.69,-421.88 125.69,-415.88 125.69,-409.88 125.69,-409.88 125.69,-20 125.69,-20 125.69,-14 131.69,-8 137.69,-8"/>
<text text-anchor="middle" x="244.69" y="-15.8" font-family="Times New Roman,serif" font-size="14.00">10</text>
</g>
<!-- Ct -->
<g id="node1" class="node">
<title>Ct</title>
<polygon fill="none" stroke="black" points="251.19,-302.93 160.19,-302.93 160.19,-249.93 251.19,-249.93 251.19,-302.93"/>
<text text-anchor="middle" x="205.69" y="-287.73" font-family="Times New Roman,serif" font-size="14.00">Ct</text>
<text text-anchor="middle" x="205.69" y="-272.73" font-family="Times New Roman,serif" font-size="14.00">~</text>
<text text-anchor="middle" x="205.69" y="-257.73" font-family="Times New Roman,serif" font-size="14.00">Deterministic</text>
</g>
<!-- Ct_modeled -->
<g id="node3" class="node">
<title>Ct_modeled</title>
<ellipse fill="lightgrey" stroke="black" cx="192.69" cy="-165.48" rx="58.88" ry="37.45"/>
<text text-anchor="middle" x="192.69" y="-176.78" font-family="Times New Roman,serif" font-size="14.00">Ct_modeled</text>
<text text-anchor="middle" x="192.69" y="-161.78" font-family="Times New Roman,serif" font-size="14.00">~</text>
<text text-anchor="middle" x="192.69" y="-146.78" font-family="Times New Roman,serif" font-size="14.00">Normal</text>
</g>
<!-- Ct&#45;&gt;Ct_modeled -->
<g id="edge7" class="edge">
<title>Ct&#45;&gt;Ct_modeled</title>
<path fill="none" stroke="black" d="M202.64,-249.89C201.33,-238.87 199.75,-225.63 198.24,-212.97"/>
<polygon fill="black" stroke="black" points="201.71,-212.52 197.05,-203 194.76,-213.35 201.71,-212.52"/>
</g>
<!-- t_obs -->
<g id="node2" class="node">
<title>t_obs</title>
<path fill="lightgrey" stroke="black" d="M237.69,-413.88C237.69,-413.88 173.69,-413.88 173.69,-413.88 167.69,-413.88 161.69,-407.88 161.69,-401.88 161.69,-401.88 161.69,-372.88 161.69,-372.88 161.69,-366.88 167.69,-360.88 173.69,-360.88 173.69,-360.88 237.69,-360.88 237.69,-360.88 243.69,-360.88 249.69,-366.88 249.69,-372.88 249.69,-372.88 249.69,-401.88 249.69,-401.88 249.69,-407.88 243.69,-413.88 237.69,-413.88"/>
<text text-anchor="middle" x="205.69" y="-398.68" font-family="Times New Roman,serif" font-size="14.00">t_obs</text>
<text text-anchor="middle" x="205.69" y="-383.68" font-family="Times New Roman,serif" font-size="14.00">~</text>
<text text-anchor="middle" x="205.69" y="-368.68" font-family="Times New Roman,serif" font-size="14.00">MutableData</text>
</g>
<!-- t_obs&#45;&gt;Ct -->
<g id="edge5" class="edge">
<title>t_obs&#45;&gt;Ct</title>
<path fill="none" stroke="black" d="M205.69,-360.84C205.69,-346.73 205.69,-328.98 205.69,-313.49"/>
<polygon fill="black" stroke="black" points="209.19,-313.19 205.69,-303.19 202.19,-313.19 209.19,-313.19"/>
</g>
<!-- Ct_obs -->
<g id="node4" class="node">
<title>Ct_obs</title>
<path fill="lightgrey" stroke="black" d="M224.69,-92C224.69,-92 160.69,-92 160.69,-92 154.69,-92 148.69,-86 148.69,-80 148.69,-80 148.69,-51 148.69,-51 148.69,-45 154.69,-39 160.69,-39 160.69,-39 224.69,-39 224.69,-39 230.69,-39 236.69,-45 236.69,-51 236.69,-51 236.69,-80 236.69,-80 236.69,-86 230.69,-92 224.69,-92"/>
<text text-anchor="middle" x="192.69" y="-76.8" font-family="Times New Roman,serif" font-size="14.00">Ct_obs</text>
<text text-anchor="middle" x="192.69" y="-61.8" font-family="Times New Roman,serif" font-size="14.00">~</text>
<text text-anchor="middle" x="192.69" y="-46.8" font-family="Times New Roman,serif" font-size="14.00">MutableData</text>
</g>
<!-- Ct_modeled&#45;&gt;Ct_obs -->
<g id="edge1" class="edge">
<title>Ct_modeled&#45;&gt;Ct_obs</title>
<path fill="none" stroke="black" d="M192.69,-127.99C192.69,-119.58 192.69,-110.63 192.69,-102.25"/>
<polygon fill="black" stroke="black" points="196.19,-102.01 192.69,-92.01 189.19,-102.01 196.19,-102.01"/>
</g>
<!-- B -->
<g id="node5" class="node">
<title>B</title>
<ellipse fill="none" stroke="black" cx="347.69" cy="-387.38" rx="79.81" ry="37.45"/>
<text text-anchor="middle" x="347.69" y="-398.68" font-family="Times New Roman,serif" font-size="14.00">B</text>
<text text-anchor="middle" x="347.69" y="-383.68" font-family="Times New Roman,serif" font-size="14.00">~</text>
<text text-anchor="middle" x="347.69" y="-368.68" font-family="Times New Roman,serif" font-size="14.00">TruncatedNormal</text>
</g>
<!-- B&#45;&gt;Ct -->
<g id="edge2" class="edge">
<title>B&#45;&gt;Ct</title>
<path fill="none" stroke="black" d="M306.62,-354.87C287.92,-340.53 265.84,-323.58 247.11,-309.21"/>
<polygon fill="black" stroke="black" points="249.09,-306.32 239.03,-303.01 244.83,-311.88 249.09,-306.32"/>
</g>
<!-- sigma -->
<g id="node6" class="node">
<title>sigma</title>
<ellipse fill="none" stroke="black" cx="58.69" cy="-276.43" rx="58.88" ry="37.45"/>
<text text-anchor="middle" x="58.69" y="-287.73" font-family="Times New Roman,serif" font-size="14.00">sigma</text>
<text text-anchor="middle" x="58.69" y="-272.73" font-family="Times New Roman,serif" font-size="14.00">~</text>
<text text-anchor="middle" x="58.69" y="-257.73" font-family="Times New Roman,serif" font-size="14.00">HalfNormal</text>
</g>
<!-- sigma&#45;&gt;Ct_modeled -->
<g id="edge8" class="edge">
<title>sigma&#45;&gt;Ct_modeled</title>
<path fill="none" stroke="black" d="M94.25,-246.52C111.06,-232.85 131.28,-216.41 149.01,-201.99"/>
<polygon fill="black" stroke="black" points="151.42,-204.55 156.97,-195.52 147,-199.12 151.42,-204.55"/>
</g>
<!-- Cd -->
<g id="node7" class="node">
<title>Cd</title>
<ellipse fill="none" stroke="black" cx="525.69" cy="-387.38" rx="79.81" ry="37.45"/>
<text text-anchor="middle" x="525.69" y="-398.68" font-family="Times New Roman,serif" font-size="14.00">Cd</text>
<text text-anchor="middle" x="525.69" y="-383.68" font-family="Times New Roman,serif" font-size="14.00">~</text>
<text text-anchor="middle" x="525.69" y="-368.68" font-family="Times New Roman,serif" font-size="14.00">TruncatedNormal</text>
</g>
<!-- Cd&#45;&gt;Ct -->
<g id="edge4" class="edge">
<title>Cd&#45;&gt;Ct</title>
<path fill="none" stroke="black" d="M467.08,-361.54C457,-357.5 446.58,-353.48 436.69,-349.91 377.27,-328.45 307.99,-307.21 260.91,-293.32"/>
<polygon fill="black" stroke="black" points="261.8,-289.93 251.22,-290.47 259.83,-296.65 261.8,-289.93"/>
</g>
<!-- R -->
<g id="node8" class="node">
<title>R</title>
<ellipse fill="none" stroke="black" cx="703.69" cy="-387.38" rx="79.81" ry="37.45"/>
<text text-anchor="middle" x="703.69" y="-398.68" font-family="Times New Roman,serif" font-size="14.00">R</text>
<text text-anchor="middle" x="703.69" y="-383.68" font-family="Times New Roman,serif" font-size="14.00">~</text>
<text text-anchor="middle" x="703.69" y="-368.68" font-family="Times New Roman,serif" font-size="14.00">TruncatedNormal</text>
</g>
<!-- R&#45;&gt;Ct -->
<g id="edge6" class="edge">
<title>R&#45;&gt;Ct</title>
<path fill="none" stroke="black" d="M646.88,-361C636.32,-356.89 625.28,-352.98 614.69,-349.91 491.07,-314.07 341.01,-292.97 261.47,-283.48"/>
<polygon fill="black" stroke="black" points="261.54,-279.97 251.2,-282.27 260.72,-286.92 261.54,-279.97"/>
</g>
<!-- C0 -->
<g id="node9" class="node">
<title>C0</title>
<ellipse fill="none" stroke="black" cx="881.69" cy="-387.38" rx="79.81" ry="37.45"/>
<text text-anchor="middle" x="881.69" y="-398.68" font-family="Times New Roman,serif" font-size="14.00">C0</text>
<text text-anchor="middle" x="881.69" y="-383.68" font-family="Times New Roman,serif" font-size="14.00">~</text>
<text text-anchor="middle" x="881.69" y="-368.68" font-family="Times New Roman,serif" font-size="14.00">TruncatedNormal</text>
</g>
<!-- C0&#45;&gt;Ct -->
<g id="edge3" class="edge">
<title>C0&#45;&gt;Ct</title>
<path fill="none" stroke="black" d="M825.49,-360.73C814.77,-356.59 803.51,-352.74 792.69,-349.91 601.86,-299.98 366.88,-284.17 261.48,-279.39"/>
<polygon fill="black" stroke="black" points="261.53,-275.89 251.38,-278.95 261.22,-282.88 261.53,-275.89"/>
</g>
</g>
</svg>
