<?xml version="1.0" encoding="UTF-8" standalone="no"?>
<!DOCTYPE svg PUBLIC "-//W3C//DTD SVG 1.1//EN"
 "http://www.w3.org/Graphics/SVG/1.1/DTD/svg11.dtd">
<!-- Generated by graphviz version 6.0.1 (0)
 -->
<!-- Pages: 1 -->
<svg width="1050pt" height="341pt"
 viewBox="0.00 0.00 1050.13 340.91" xmlns="http://www.w3.org/2000/svg" xmlns:xlink="http://www.w3.org/1999/xlink">
<g id="graph0" class="graph" transform="scale(1 1) rotate(0) translate(4 336.91)">
<polygon fill="white" stroke="none" points="-4,4 -4,-336.91 1046.13,-336.91 1046.13,4 -4,4"/>
<g id="clust1" class="cluster">
<title>cluster291</title>
<path fill="none" stroke="black" d="M20,-8C20,-8 376,-8 376,-8 382,-8 388,-14 388,-20 388,-20 388,-301.93 388,-301.93 388,-307.93 382,-313.93 376,-313.93 376,-313.93 20,-313.93 20,-313.93 14,-313.93 8,-307.93 8,-301.93 8,-301.93 8,-20 8,-20 8,-14 14,-8 20,-8"/>
<text text-anchor="middle" x="369.5" y="-15.8" font-family="Times New Roman,serif" font-size="14.00">291</text>
</g>
<g id="clust2" class="cluster">
<title>cluster17</title>
<path fill="none" stroke="black" d="M408,-210.95C408,-210.95 830,-210.95 830,-210.95 836,-210.95 842,-216.95 842,-222.95 842,-222.95 842,-312.91 842,-312.91 842,-318.91 836,-324.91 830,-324.91 830,-324.91 408,-324.91 408,-324.91 402,-324.91 396,-318.91 396,-312.91 396,-312.91 396,-222.95 396,-222.95 396,-216.95 402,-210.95 408,-210.95"/>
<text text-anchor="middle" x="827" y="-218.75" font-family="Times New Roman,serif" font-size="14.00">17</text>
</g>
<!-- measurement_err_pb210 -->
<g id="node1" class="node">
<title>measurement_err_pb210</title>
<path fill="lightgrey" stroke="black" d="M368,-305.93C368,-305.93 240,-305.93 240,-305.93 234,-305.93 228,-299.93 228,-293.93 228,-293.93 228,-264.93 228,-264.93 228,-258.93 234,-252.93 240,-252.93 240,-252.93 368,-252.93 368,-252.93 374,-252.93 380,-258.93 380,-264.93 380,-264.93 380,-293.93 380,-293.93 380,-299.93 374,-305.93 368,-305.93"/>
<text text-anchor="middle" x="304" y="-290.73" font-family="Times New Roman,serif" font-size="14.00">measurement_err_pb210</text>
<text text-anchor="middle" x="304" y="-275.73" font-family="Times New Roman,serif" font-size="14.00">~</text>
<text text-anchor="middle" x="304" y="-260.73" font-family="Times New Roman,serif" font-size="14.00">MutableData</text>
</g>
<!-- A_pred -->
<g id="node2" class="node">
<title>A_pred</title>
<ellipse fill="lightgrey" stroke="black" cx="338" cy="-165.48" rx="41.94" ry="37.45"/>
<text text-anchor="middle" x="338" y="-176.78" font-family="Times New Roman,serif" font-size="14.00">A_pred</text>
<text text-anchor="middle" x="338" y="-161.78" font-family="Times New Roman,serif" font-size="14.00">~</text>
<text text-anchor="middle" x="338" y="-146.78" font-family="Times New Roman,serif" font-size="14.00">Normal</text>
</g>
<!-- measurement_err_pb210&#45;&gt;A_pred -->
<g id="edge4" class="edge">
<title>measurement_err_pb210&#45;&gt;A_pred</title>
<path fill="none" stroke="black" d="M311.8,-252.75C315.49,-240.59 320.01,-225.71 324.25,-211.75"/>
<polygon fill="black" stroke="black" points="327.72,-212.38 327.27,-201.8 321.02,-210.35 327.72,-212.38"/>
</g>
<!-- obs_pb210 -->
<g id="node4" class="node">
<title>obs_pb210</title>
<path fill="lightgrey" stroke="black" d="M368,-92C368,-92 304,-92 304,-92 298,-92 292,-86 292,-80 292,-80 292,-51 292,-51 292,-45 298,-39 304,-39 304,-39 368,-39 368,-39 374,-39 380,-45 380,-51 380,-51 380,-80 380,-80 380,-86 374,-92 368,-92"/>
<text text-anchor="middle" x="336" y="-76.8" font-family="Times New Roman,serif" font-size="14.00">obs_pb210</text>
<text text-anchor="middle" x="336" y="-61.8" font-family="Times New Roman,serif" font-size="14.00">~</text>
<text text-anchor="middle" x="336" y="-46.8" font-family="Times New Roman,serif" font-size="14.00">MutableData</text>
</g>
<!-- A_pred&#45;&gt;obs_pb210 -->
<g id="edge1" class="edge">
<title>A_pred&#45;&gt;obs_pb210</title>
<path fill="none" stroke="black" d="M337.26,-127.99C337.08,-119.58 336.9,-110.63 336.73,-102.25"/>
<polygon fill="black" stroke="black" points="340.22,-101.94 336.52,-92.01 333.23,-102.08 340.22,-101.94"/>
</g>
<!-- core_idx -->
<g id="node3" class="node">
<title>core_idx</title>
<path fill="lightgrey" stroke="black" d="M198,-305.93C198,-305.93 134,-305.93 134,-305.93 128,-305.93 122,-299.93 122,-293.93 122,-293.93 122,-264.93 122,-264.93 122,-258.93 128,-252.93 134,-252.93 134,-252.93 198,-252.93 198,-252.93 204,-252.93 210,-258.93 210,-264.93 210,-264.93 210,-293.93 210,-293.93 210,-299.93 204,-305.93 198,-305.93"/>
<text text-anchor="middle" x="166" y="-290.73" font-family="Times New Roman,serif" font-size="14.00">core_idx</text>
<text text-anchor="middle" x="166" y="-275.73" font-family="Times New Roman,serif" font-size="14.00">~</text>
<text text-anchor="middle" x="166" y="-260.73" font-family="Times New Roman,serif" font-size="14.00">MutableData</text>
</g>
<!-- core_idx&#45;&gt;A_pred -->
<g id="edge6" class="edge">
<title>core_idx&#45;&gt;A_pred</title>
<path fill="none" stroke="black" d="M181.18,-252.8C190.57,-238.81 203.73,-222.12 219,-210.95 239.39,-196.04 265.36,-185.57 287.84,-178.55"/>
<polygon fill="black" stroke="black" points="288.97,-181.86 297.55,-175.66 286.97,-175.16 288.97,-181.86"/>
</g>
<!-- mass_depth -->
<g id="node5" class="node">
<title>mass_depth</title>
<path fill="lightgrey" stroke="black" d="M92,-305.93C92,-305.93 28,-305.93 28,-305.93 22,-305.93 16,-299.93 16,-293.93 16,-293.93 16,-264.93 16,-264.93 16,-258.93 22,-252.93 28,-252.93 28,-252.93 92,-252.93 92,-252.93 98,-252.93 104,-258.93 104,-264.93 104,-264.93 104,-293.93 104,-293.93 104,-299.93 98,-305.93 92,-305.93"/>
<text text-anchor="middle" x="60" y="-290.73" font-family="Times New Roman,serif" font-size="14.00">mass_depth</text>
<text text-anchor="middle" x="60" y="-275.73" font-family="Times New Roman,serif" font-size="14.00">~</text>
<text text-anchor="middle" x="60" y="-260.73" font-family="Times New Roman,serif" font-size="14.00">MutableData</text>
</g>
<!-- mass_depth&#45;&gt;A_pred -->
<g id="edge8" class="edge">
<title>mass_depth&#45;&gt;A_pred</title>
<path fill="none" stroke="black" d="M73.88,-252.84C83.08,-238.32 96.49,-221.08 113,-210.95 165.81,-178.57 237.54,-169.12 285.68,-166.69"/>
<polygon fill="black" stroke="black" points="286.04,-170.18 295.88,-166.26 285.74,-163.18 286.04,-170.18"/>
</g>
<!-- w -->
<g id="node6" class="node">
<title>w</title>
<ellipse fill="none" stroke="black" cx="791" cy="-279.43" rx="43.27" ry="37.45"/>
<text text-anchor="middle" x="791" y="-290.73" font-family="Times New Roman,serif" font-size="14.00">w</text>
<text text-anchor="middle" x="791" y="-275.73" font-family="Times New Roman,serif" font-size="14.00">~</text>
<text text-anchor="middle" x="791" y="-260.73" font-family="Times New Roman,serif" font-size="14.00">Gamma</text>
</g>
<!-- w&#45;&gt;A_pred -->
<g id="edge2" class="edge">
<title>w&#45;&gt;A_pred</title>
<path fill="none" stroke="black" d="M773.15,-245.05C764.56,-232.26 753.05,-218.86 739,-210.95 680.45,-178.02 484.52,-169.47 389.95,-167.25"/>
<polygon fill="black" stroke="black" points="389.83,-163.75 379.75,-167.03 389.67,-170.75 389.83,-163.75"/>
</g>
<!-- sigma -->
<g id="node7" class="node">
<title>sigma</title>
<ellipse fill="none" stroke="black" cx="671" cy="-279.43" rx="58.88" ry="37.45"/>
<text text-anchor="middle" x="671" y="-290.73" font-family="Times New Roman,serif" font-size="14.00">sigma</text>
<text text-anchor="middle" x="671" y="-275.73" font-family="Times New Roman,serif" font-size="14.00">~</text>
<text text-anchor="middle" x="671" y="-260.73" font-family="Times New Roman,serif" font-size="14.00">HalfNormal</text>
</g>
<!-- sigma&#45;&gt;A_pred -->
<g id="edge5" class="edge">
<title>sigma&#45;&gt;A_pred</title>
<path fill="none" stroke="black" d="M645.44,-245.42C633.85,-232.69 619.13,-219.23 603,-210.95 535.15,-176.15 445.9,-167.66 390.25,-166.07"/>
<polygon fill="black" stroke="black" points="389.99,-162.56 379.92,-165.84 389.84,-169.56 389.99,-162.56"/>
</g>
<!-- ma -->
<g id="node8" class="node">
<title>ma</title>
<ellipse fill="none" stroke="black" cx="551" cy="-279.43" rx="43.27" ry="37.45"/>
<text text-anchor="middle" x="551" y="-290.73" font-family="Times New Roman,serif" font-size="14.00">ma</text>
<text text-anchor="middle" x="551" y="-275.73" font-family="Times New Roman,serif" font-size="14.00">~</text>
<text text-anchor="middle" x="551" y="-260.73" font-family="Times New Roman,serif" font-size="14.00">Gamma</text>
</g>
<!-- ma&#45;&gt;A_pred -->
<g id="edge9" class="edge">
<title>ma&#45;&gt;A_pred</title>
<path fill="none" stroke="black" d="M532.01,-245.44C523.37,-233.02 512.13,-219.78 499,-210.95 466.29,-188.96 422.92,-177.78 389.43,-172.14"/>
<polygon fill="black" stroke="black" points="389.81,-168.65 379.38,-170.56 388.72,-175.57 389.81,-168.65"/>
</g>
<!-- Phi -->
<g id="node9" class="node">
<title>Phi</title>
<ellipse fill="none" stroke="black" cx="447" cy="-279.43" rx="43.27" ry="37.45"/>
<text text-anchor="middle" x="447" y="-290.73" font-family="Times New Roman,serif" font-size="14.00">Phi</text>
<text text-anchor="middle" x="447" y="-275.73" font-family="Times New Roman,serif" font-size="14.00">~</text>
<text text-anchor="middle" x="447" y="-260.73" font-family="Times New Roman,serif" font-size="14.00">Gamma</text>
</g>
<!-- Phi&#45;&gt;A_pred -->
<g id="edge10" class="edge">
<title>Phi&#45;&gt;A_pred</title>
<path fill="none" stroke="black" d="M423.85,-247.44C414.46,-235.58 403.19,-222.2 392,-210.95 387.28,-206.21 382.09,-201.45 376.85,-196.9"/>
<polygon fill="black" stroke="black" points="379.08,-194.2 369.19,-190.4 374.56,-199.54 379.08,-194.2"/>
</g>
<!-- s -->
<g id="node10" class="node">
<title>s</title>
<ellipse fill="none" stroke="black" cx="895" cy="-279.43" rx="43.27" ry="37.45"/>
<text text-anchor="middle" x="895" y="-290.73" font-family="Times New Roman,serif" font-size="14.00">s</text>
<text text-anchor="middle" x="895" y="-275.73" font-family="Times New Roman,serif" font-size="14.00">~</text>
<text text-anchor="middle" x="895" y="-260.73" font-family="Times New Roman,serif" font-size="14.00">Gamma</text>
</g>
<!-- s&#45;&gt;A_pred -->
<g id="edge7" class="edge">
<title>s&#45;&gt;A_pred</title>
<path fill="none" stroke="black" d="M878.45,-244.57C870.45,-231.87 859.61,-218.65 846,-210.95 769.14,-167.45 503.51,-164.74 390.04,-165.66"/>
<polygon fill="black" stroke="black" points="389.84,-162.17 379.87,-165.76 389.91,-169.17 389.84,-162.17"/>
</g>
<!-- km -->
<g id="node11" class="node">
<title>km</title>
<ellipse fill="none" stroke="black" cx="999" cy="-279.43" rx="43.27" ry="37.45"/>
<text text-anchor="middle" x="999" y="-290.73" font-family="Times New Roman,serif" font-size="14.00">km</text>
<text text-anchor="middle" x="999" y="-275.73" font-family="Times New Roman,serif" font-size="14.00">~</text>
<text text-anchor="middle" x="999" y="-260.73" font-family="Times New Roman,serif" font-size="14.00">Gamma</text>
</g>
<!-- km&#45;&gt;A_pred -->
<g id="edge3" class="edge">
<title>km&#45;&gt;A_pred</title>
<path fill="none" stroke="black" d="M981.53,-245.14C972.94,-232.2 961.33,-218.66 947,-210.95 898.61,-184.92 529.09,-171.88 390.38,-167.86"/>
<polygon fill="black" stroke="black" points="390.12,-164.36 380.02,-167.57 389.92,-171.35 390.12,-164.36"/>
</g>
</g>
</svg>
